PathFileType  4	(X/Y/Z) C:\simtk\uwmodels\fbknee\data\invivovalid3\exp\aclc01\Files_W_HJCs
DataRate	CameraRate	NumFrames	NumMarkers	Units	OrigDataRate	OrigDataStartFrame	OrigNumFrames
  200.0      200.0       8         52 mm      200.0         302      1204
Frame#	Time            R.Shoulder                       R.Clavicle                       R.Bicep                          R.Elbow                          R.Forearm                        R.Wrist                          L.Shoulder                       L.Clavicle                       L.Scapula                        L.Bicep                          L.Elbow                          L.Forearm                        L.Wrist                          R.ASIS                           R.PSIS                           S2                               L.PSIS                           L.ASIS                           R.TH1                            R.TH2                            R.TH3                            R.Knee                           R.SH1                            R.SH2                            R.SH3                            R.SH4                            R.Ankle                          R.Heel                           R.MT5                            L.TH1                            L.TH2                            L.TH3                            L.TH4                            L.Knee                           L.SH1                            L.SH2                            L.SH3                            L.Ankle                          L.Heel                           L.MT5                            R.Melb                           R.GTR                            R.Mkn                            R.Man                            R.MT0                            L.Melb                           L.GTR                            L.Mkn                            L.Man                            L.MT0                            R_HJC                            L_HJC                  
                     X1         Y1         Z1         X2         Y2         Z2         X3         Y3         Z3         X4         Y4         Z4         X5         Y5         Z5         X6         Y6         Z6         X7         Y7         Z7         X8         Y8         Z8         X9         Y9         Z9         X10         Y10         Z10         X11         Y11         Z11         X12         Y12         Z12         X13         Y13         Z13         X14         Y14         Z14         X15         Y15         Z15         X16         Y16         Z16         X17         Y17         Z17         X18         Y18         Z18         X19         Y19         Z19         X20         Y20         Z20         X21         Y21         Z21         X22         Y22         Z22         X23         Y23         Z23         X24         Y24         Z24         X25         Y25         Z25         X26         Y26         Z26         X27         Y27         Z27         X28         Y28         Z28         X29         Y29         Z29         X30         Y30         Z30         X31         Y31         Z31         X32         Y32         Z32         X33         Y33         Z33         X34         Y34         Z34         X35         Y35         Z35         X36         Y36         Z36         X37         Y37         Z37         X38         Y38         Z38         X39         Y39         Z39         X40         Y40         Z40         X41         Y41         Z41         X42         Y42         Z42         X43         Y43         Z43         X44         Y44         Z44         X45         Y45         Z45         X46         Y46         Z46         X47         Y47         Z47         X48         Y48         Z48         X49         Y49         Z49         X50         Y50         Z50         X51         Y51         Z51         X52         Y52         Z52         

	302	1.50500	536.178	1932.277	1606.529	616.800	2081.762	1600.499	586.251	1883.639	1398.796	469.980	1850.029	1307.916	551.382	1761.712	1249.830	503.849	1729.907	1135.177	571.074	2308.862	1608.907	626.179	2139.319	1601.126	444.150	2214.893	1575.783	613.928	2354.597	1453.236	517.338	2411.557	1315.096	582.912	2479.612	1252.719	547.183	2503.200	1133.773	659.230	1986.334	1151.215	428.364	2067.855	1226.792	422.183	2119.009	1220.125	434.077	2173.841	1229.085	657.551	2242.253	1140.237	596.494	1905.674	945.307	446.088	1934.878	958.999	442.368	1942.405	883.936	495.091	1912.958	736.534	519.654	1880.761	604.183	519.905	1887.360	529.537	410.225	1928.333	610.336	408.753	1924.260	533.700	481.852	1893.879	333.151	416.215	1942.736	299.716	601.226	1863.847	276.332	600.667	2311.875	907.424	604.021	2298.855	826.232	452.820	2305.929	908.337	447.059	2300.552	831.738	498.301	2312.682	727.365	540.242	2333.968	641.705	429.575	2319.859	642.753	424.423	2335.926	567.141	505.320	2357.408	338.178	421.579	2325.623	296.983	604.986	2384.090	278.630	537.241	1925.601	1274.953	538.400	1892.136	1094.282	510.948	2077.578	694.023	506.443	1984.804	337.120	619.007	1978.725	279.421	590.744	2320.623	1270.190	527.906	2323.585	1112.389	500.385	2145.449	695.209	511.381	2262.038	333.772	624.078	2261.530	279.284	561.758	2015.386	1101.233	554.227	2213.512	1080.474
	303	1.51000	535.891	1932.248	1606.410	616.875	2081.918	1600.503	586.251	1883.639	1398.796	469.868	1849.896	1307.578	551.361	1761.878	1249.790	503.849	1729.907	1135.177	571.283	2308.905	1608.909	626.484	2139.261	1600.818	444.255	2214.996	1575.203	613.922	2354.533	1453.313	517.741	2411.784	1314.872	582.912	2479.612	1252.719	547.269	2503.398	1133.658	659.230	1986.334	1151.215	428.364	2067.855	1226.792	422.183	2119.009	1220.125	434.077	2173.841	1229.085	657.551	2242.253	1140.237	596.479	1905.854	945.200	446.164	1934.750	959.059	442.518	1942.234	884.247	495.091	1912.958	736.534	519.630	1880.642	604.256	519.833	1887.571	529.515	410.225	1928.333	610.336	408.843	1924.175	533.837	481.852	1893.879	333.151	416.000	1943.641	299.427	601.226	1863.847	276.332	600.788	2311.773	907.369	604.021	2298.855	826.232	453.231	2304.703	907.723	447.104	2300.377	831.586	498.482	2312.717	727.331	540.242	2333.968	641.705	429.462	2319.888	642.746	424.051	2335.854	566.796	505.436	2357.409	338.153	421.579	2325.623	296.983	604.603	2384.248	278.519	537.336	1925.331	1274.830	538.400	1892.136	1094.282	510.948	2077.578	694.023	506.443	1984.804	337.120	618.097	1978.483	279.223	590.590	2320.829	1270.025	527.906	2323.585	1112.389	500.385	2145.449	695.209	511.272	2261.974	333.990	624.107	2261.482	279.316	561.758	2015.386	1101.233	554.227	2213.512	1080.474
	304	1.51500	536.153	1932.289	1606.620	616.970	2082.127	1600.528	586.251	1883.639	1398.796	469.980	1850.029	1307.916	551.361	1761.878	1249.790	504.195	1730.208	1135.265	571.132	2308.787	1608.940	626.484	2139.261	1600.818	444.320	2214.800	1574.720	613.985	2354.612	1453.256	517.849	2411.742	1315.154	582.912	2479.612	1252.719	547.383	2503.303	1133.734	659.230	1986.334	1151.215	428.364	2067.855	1226.792	422.166	2119.068	1220.031	434.077	2173.841	1229.085	657.551	2242.253	1140.237	596.492	1905.617	945.126	446.334	1934.834	959.246	442.517	1942.126	883.983	495.091	1912.958	736.534	519.657	1880.594	604.213	519.929	1887.460	529.560	410.046	1928.816	610.236	408.693	1924.483	533.776	481.852	1893.879	333.151	416.000	1943.641	299.427	601.226	1863.847	276.332	600.549	2311.647	907.296	604.060	2298.859	826.215	453.231	2304.703	907.723	447.208	2300.073	831.452	498.427	2312.661	727.361	540.203	2333.914	641.676	429.462	2319.888	642.746	424.511	2335.967	567.137	505.320	2357.408	338.178	421.689	2325.678	297.050	604.830	2384.169	278.569	537.358	1925.903	1275.039	538.400	1892.136	1094.282	511.402	2077.456	693.730	506.543	1984.722	337.260	618.097	1978.483	279.223	590.590	2320.829	1270.025	527.906	2323.585	1112.389	500.385	2145.449	695.209	510.979	2261.840	333.939	624.107	2261.482	279.316	561.761	2015.395	1101.221	554.244	2213.522	1080.459
	305	1.52000	536.428	1932.264	1606.288	616.857	2081.909	1600.545	586.251	1883.639	1398.796	470.271	1849.654	1307.785	551.354	1761.913	1249.630	504.153	1729.944	1135.273	571.285	2308.818	1608.924	626.546	2139.371	1600.784	444.384	2214.646	1574.828	613.922	2354.533	1453.313	517.650	2411.779	1315.167	582.879	2479.660	1252.686	547.309	2503.260	1133.784	659.230	1986.334	1151.215	428.420	2068.039	1226.759	422.183	2119.009	1220.125	434.173	2174.004	1229.022	657.646	2242.221	1140.247	596.492	1905.617	945.126	446.164	1934.750	959.059	442.517	1942.126	883.983	495.091	1912.958	736.534	519.657	1880.594	604.213	519.681	1887.487	529.608	410.031	1928.747	610.278	408.671	1924.391	533.630	481.872	1893.768	333.222	416.000	1943.641	299.427	601.383	1863.473	276.185	600.763	2311.802	907.340	603.981	2298.911	826.377	453.231	2304.703	907.723	447.059	2300.552	831.738	498.367	2312.721	727.353	540.242	2333.968	641.705	429.607	2319.876	642.726	424.515	2335.804	567.335	505.436	2357.409	338.153	421.659	2325.751	297.030	604.603	2384.248	278.519	537.125	1925.299	1274.867	538.262	1892.057	1094.373	510.948	2077.578	694.023	506.683	1984.807	337.282	619.007	1978.725	279.421	590.590	2320.829	1270.025	527.906	2323.585	1112.389	500.385	2145.449	695.209	511.327	2262.006	333.881	624.028	2261.456	278.945	561.771	2015.422	1101.230	554.335	2213.551	1080.454
	306	1.52500	536.428	1932.264	1606.288	616.875	2081.918	1600.503	586.251	1883.639	1398.796	470.024	1850.176	1307.886	551.354	1761.913	1249.630	504.195	1730.208	1135.265	571.285	2308.818	1608.924	626.546	2139.371	1600.784	444.384	2214.646	1574.828	614.077	2354.542	1453.410	517.849	2411.742	1315.154	582.912	2479.612	1252.719	547.239	2503.228	1133.824	659.230	1986.334	1151.215	428.364	2067.855	1226.792	422.183	2119.009	1220.125	434.077	2173.841	1229.085	657.646	2242.221	1140.247	596.492	1905.617	945.126	446.164	1934.750	959.059	442.681	1941.815	884.067	495.091	1912.958	736.534	519.628	1880.809	604.226	519.905	1887.360	529.537	410.524	1928.487	610.251	408.913	1924.103	533.938	481.852	1893.879	333.151	416.000	1943.641	299.427	601.552	1863.317	276.251	600.729	2311.707	907.276	603.968	2298.731	826.183	453.231	2304.703	907.723	447.516	2300.575	831.344	498.482	2312.717	727.331	540.242	2333.968	641.705	429.462	2319.888	642.746	424.116	2335.831	566.925	505.436	2357.409	338.153	421.805	2325.966	297.189	604.830	2384.169	278.569	537.336	1925.331	1274.830	539.351	1892.146	1094.313	510.948	2077.578	694.023	506.683	1984.807	337.282	619.007	1978.725	279.421	590.590	2320.829	1270.025	527.906	2323.585	1112.389	500.385	2145.449	695.209	511.327	2262.006	333.881	624.078	2261.530	279.284	561.767	2015.379	1101.231	554.273	2213.509	1080.486
	307	1.53000	536.428	1932.264	1606.288	616.942	2081.999	1600.484	586.232	1883.692	1398.321	470.024	1850.176	1307.886	551.355	1761.860	1249.452	504.153	1729.944	1135.273	571.431	2308.871	1608.926	626.546	2139.371	1600.784	444.384	2214.646	1574.828	613.922	2354.533	1453.313	517.849	2411.742	1315.154	582.865	2479.588	1252.783	547.386	2503.277	1133.753	659.230	1986.334	1151.215	428.364	2067.855	1226.792	422.183	2119.009	1220.125	434.173	2174.004	1229.022	657.646	2242.221	1140.247	596.492	1905.617	945.126	446.244	1934.779	958.900	442.503	1942.265	884.210	495.066	1912.857	736.498	519.630	1880.642	604.256	519.905	1887.360	529.537	410.524	1928.487	610.251	408.913	1924.103	533.938	481.852	1893.879	333.151	416.000	1943.641	299.427	601.226	1863.847	276.332	600.628	2311.723	907.374	604.060	2298.859	826.215	452.328	2306.149	908.305	447.159	2300.255	831.603	498.170	2312.679	727.293	540.143	2333.967	641.654	429.712	2319.848	642.733	424.393	2335.953	567.044	505.320	2357.408	338.178	421.805	2325.966	297.189	604.603	2384.248	278.519	537.453	1925.634	1274.916	538.400	1892.136	1094.282	510.948	2077.578	694.023	506.683	1984.807	337.282	619.007	1978.725	279.421	590.590	2320.829	1270.025	527.906	2323.585	1112.389	500.389	2145.379	695.056	511.381	2262.038	333.772	624.078	2261.530	279.284	561.772	2015.394	1101.232	554.310	2213.522	1080.463
	308	1.53500	536.446	1932.391	1606.439	616.888	2081.900	1600.515	586.237	1883.746	1398.519	470.024	1850.176	1307.886	551.439	1761.986	1249.398	504.263	1730.281	1135.137	571.431	2308.871	1608.926	626.546	2139.371	1600.784	444.425	2214.945	1574.732	614.077	2354.542	1453.410	518.063	2411.921	1315.140	582.912	2479.612	1252.719	547.386	2503.277	1133.753	659.230	1986.334	1151.215	428.364	2067.855	1226.792	422.183	2119.009	1220.125	434.269	2174.167	1228.960	657.646	2242.221	1140.247	596.652	1905.549	945.022	446.244	1934.779	958.900	442.532	1942.094	884.020	495.066	1912.857	736.498	519.657	1880.594	604.213	519.905	1887.360	529.537	410.329	1928.901	610.192	408.913	1924.103	533.938	482.148	1893.942	333.255	416.000	1943.641	299.427	601.226	1863.847	276.332	600.788	2311.773	907.369	604.189	2298.964	826.323	452.713	2306.220	908.430	447.059	2300.552	831.738	498.367	2312.721	727.353	540.242	2333.968	641.705	429.575	2319.859	642.753	424.116	2335.831	566.925	505.405	2357.464	338.174	421.805	2325.966	297.189	604.986	2384.090	278.630	537.336	1925.331	1274.830	538.489	1892.359	1094.312	510.948	2077.578	694.023	506.331	1984.777	337.158	618.097	1978.483	279.223	590.590	2320.829	1270.025	527.588	2324.048	1112.421	500.385	2145.449	695.209	511.381	2262.038	333.772	624.132	2261.474	279.316	561.776	2015.408	1101.233	554.348	2213.535	1080.440
	309	1.54000	536.471	1932.378	1606.347	616.819	2081.755	1600.496	586.200	1883.829	1398.373	470.024	1850.176	1307.886	551.442	1762.106	1249.649	504.195	1730.208	1135.265	571.421	2309.051	1608.941	626.546	2139.371	1600.784	444.384	2214.646	1574.828	614.146	2354.616	1453.364	518.083	2412.018	1314.964	583.000	2479.723	1252.641	547.386	2503.277	1133.753	659.230	1986.334	1151.215	428.364	2067.855	1226.792	422.183	2119.009	1220.125	434.269	2174.167	1228.960	657.586	2242.278	1140.178	596.492	1905.617	945.126	446.334	1934.834	959.246	442.503	1942.265	884.210	495.091	1912.958	736.534	519.654	1880.761	604.183	519.608	1887.698	529.586	410.046	1928.816	610.236	408.671	1924.391	533.630	482.176	1893.887	333.010	416.000	1943.641	299.427	601.226	1863.847	276.332	600.628	2311.723	907.374	604.156	2298.828	826.227	452.951	2305.598	908.280	447.059	2300.552	831.738	498.482	2312.717	727.331	540.242	2333.968	641.705	429.462	2319.888	642.746	424.423	2335.926	567.141	505.416	2357.432	338.204	421.805	2325.966	297.189	604.784	2384.158	278.588	537.453	1925.634	1274.916	538.489	1892.359	1094.312	511.402	2077.456	693.730	506.683	1984.807	337.282	618.097	1978.483	279.223	590.590	2320.829	1270.025	527.588	2324.048	1112.421	500.385	2145.449	695.209	511.327	2262.006	333.881	624.172	2261.432	279.342	561.768	2015.408	1101.234	554.296	2213.529	1080.399
